<?xml version="1.0" encoding="utf-8"?>
<!-- Generator: Adobe Illustrator 21.1.0, SVG Export Plug-In . SVG Version: 6.00 Build 0)  -->
<svg version="1.1" id="Layer_1" xmlns="http://www.w3.org/2000/svg" xmlns:xlink="http://www.w3.org/1999/xlink" x="0px" y="0px"
	 viewBox="0 0 478 84.7" style="enable-background:new 0 0 478 84.7;" xml:space="preserve">
<style type="text/css">
	.st0{fill:#FFFFFF;}
</style>
<g>
	<g>
		<path class="st0" d="M97.2,1.4c1.8,0,3.4-0.1,5,0c2.7,0.3,4.6,2,5.1,4.7c0.2,1.2,0.4,2.4,0.4,3.6c0,6,0,11.9,0,17.9
			c0,0.9,0,1.7,0,2.9c0.7-0.5,1.2-0.8,1.6-1.2c5.5-4.6,11.8-7,18.9-7.2c7.6-0.1,15.2-0.2,22.8,0c7.9,0.2,15.1,2.5,21.1,7.9
			c4.3,3.9,7.1,8.7,8.4,14.3c2.1,8.8,1.3,17.3-3.5,25.1c-4.2,6.8-10.5,10.8-18.1,12.7c-3.2,0.8-6.4,1.2-9.7,1.2
			c-7.8,0-15.7,0.3-23.5-0.2c-11-0.7-19.8-5.6-25.1-15.6c-2.2-4.2-3.3-8.7-3.4-13.4C97,36.9,97,19.7,97,2.4
			C97,2.2,97.1,1.9,97.2,1.4z M138.9,73.9C138.9,73.9,138.9,73.9,138.9,73.9c3.5,0,7.1,0,10.6,0c1,0,2-0.3,3.1-0.4
			c8.2-1.5,14-5.9,16.6-14c1.1-3.3,1.2-6.7,0.7-10c-1.2-8.3-5.7-14-13.9-16.6c-2.9-0.9-5.9-1.3-8.9-1.3c-5.1,0-10.2-0.1-15.3,0
			c-2.8,0.1-5.7,0.4-8.4,1c-6.9,1.7-11.8,5.9-14,12.8c-1,3-1.4,6.2-1.1,9.4c0.8,8.1,4.7,14.1,12.4,17.2c3.1,1.2,6.3,1.8,9.6,1.9
			C133.2,73.9,136.1,73.9,138.9,73.9z"/>
		<path class="st0" d="M193.8,1.5c2,0,3.8-0.2,5.5,0c3,0.5,4.8,2.8,4.8,6.1c0.1,4,0,7.9,0,11.9c0,2.9,0,5.9,0,8.8
			c0,0.7,0.1,1.3,0.1,2.3c0.6-0.5,1-0.7,1.4-1c5.5-4.9,12-7.3,19.3-7.4c7.5-0.1,15-0.1,22.5,0c5.8,0.1,11.2,1.5,16.3,4.4
			c5.3,3,9.1,7.4,11.3,13c3.8,9.6,3.7,19.2-1.1,28.5c-4,7.7-10.5,12.1-18.8,14.1c-3.1,0.8-6.3,1.2-9.5,1.2c-7.9,0-15.9,0.3-23.8-0.2
			c-12.4-0.8-22.9-7.8-26.8-20c-1.1-3.3-1.5-6.7-1.5-10.2c0-16.6,0-33.1,0-49.7C193.7,2.8,193.8,2.2,193.8,1.5z M235.7,73.9
			c0,0.1,0,0.2,0,0.3c4.6-0.3,9.2-0.2,13.7-0.8c7.7-1.1,13.4-5.3,16.1-12.8c1.9-5.3,1.8-10.6-0.1-15.9c-1.9-5.1-5.3-8.8-10.4-10.9
			c-3.4-1.5-7.1-2.1-10.8-2.2c-5.3-0.1-10.7-0.1-16,0c-2.8,0.1-5.7,0.4-8.4,1.1C214,34.1,209.5,37.5,207,43
			c-1.7,3.8-2.1,7.8-1.8,11.9c0.5,7.5,4.1,13,10.8,16.4c3.3,1.7,6.8,2.4,10.5,2.5C229.5,74,232.6,73.9,235.7,73.9z"/>
		<path class="st0" d="M476,83.1c-1.1,0-1.9,0-2.7,0c-13.5,0-27.1,0.1-40.6,0c-5.4,0-10.8-0.7-15.9-2.9c-8.1-3.5-13.5-9.4-16-17.8
			c-2.4-7.9-2.1-15.9,1.3-23.5c3.9-8.9,10.9-14,20.2-16.1c3.1-0.7,6.3-1,9.5-1.1c9.5-0.1,19,0,28.5,0c2.7,0,5.3,0.6,7.8,1.7
			c5.2,2.2,8.4,6.3,9.6,11.7c1.4,5.8,0.1,11.1-3.8,15.7c-3.3,4-7.7,5.6-12.7,6c-1,0.1-2.1,0.1-3.1,0.1c-14.7,0-29.3,0-44,0
			c-0.9,0-1.9,0-3,0c0,0.8-0.1,1.3,0,1.9c1.5,6.6,5.3,11.3,11.8,13.6c2.8,1,5.6,1.6,8.6,1.6c12.2,0,24.3,0,36.5,0.1
			c1.1,0,2.2,0.1,3.3,0.3c3.3,0.8,4.8,2.7,4.9,6C476.1,81.2,476,82,476,83.1z M409.9,47.9c1,0,1.9,0,2.7,0c13.8,0,27.6,0,41.4,0
			c1.8,0,3.7-0.1,5.4-0.5c1.5-0.4,3.2-1,4.4-2.1c4.7-4.1,3-10.9-1-13.1c-2-1.1-4.2-1.5-6.4-1.5c-7.9,0-15.9,0-23.8,0
			c-2.2,0-4.5,0.2-6.7,0.7C417.2,33.3,411.1,39.7,409.9,47.9z"/>
		<path class="st0" d="M90.2,83.2c-2.3,0.3-4.4,0.4-6.5-0.2c-2.6-0.6-4.2-2.3-4.8-4.9c-0.6-2.5-1.2-5-1.8-7.8
			c-0.6,0.6-1.1,1.1-1.5,1.6c-4.4,5.8-10.3,9.3-17.4,10.8c-2,0.4-4.1,0.6-6.1,0.7c-7.7,0-15.4,0.2-23-0.1c-6.2-0.2-12-2.1-17.2-5.7
			c-5.9-4.2-9.4-10-11-17c-1.4-6.4-1.2-12.9,1-19.1c3.6-9.9,10.8-15.7,20.8-18.2c4-1,8-1.2,12.1-1.2c6.6,0,13.3-0.1,19.9,0.1
			c6.9,0.2,13.2,2.2,18.7,6.6c5,4,8.2,9.1,9.5,15.3c1.8,8.5,3.2,17.1,4.8,25.6c0.8,4.1,1.6,8.1,2.3,12.2
			C90.1,82.2,90.1,82.6,90.2,83.2z M42,73.9c0,0.1,0,0.2,0,0.3c4.5-0.3,9-0.2,13.4-0.8c7-1,12.5-4.3,15.4-11
			c2.3-5.2,2.6-10.7,1-16.2c-1.9-6.5-6.1-10.9-12.4-13.1c-3.1-1.1-6.3-1.6-9.6-1.6c-5,0-10-0.1-15,0c-2.8,0.1-5.7,0.4-8.4,1
			c-6.8,1.6-11.7,5.7-14,12.5c-1.3,3.9-1.6,7.8-0.9,12c1.2,6.7,4.7,11.5,10.8,14.5c3.2,1.6,6.7,2.3,10.2,2.4
			C35.6,74,38.8,73.9,42,73.9z"/>
		<path class="st0" d="M279.9,22.3c2.7,0,5.3-0.3,7.8,0.1c3.6,0.5,6,2.7,7.9,5.7c3.2,5,6.4,10,9.7,15c5.8,8.9,11.6,17.7,17.4,26.6
			c0.6,0.9,1.1,1.7,1.8,2.8c2.1-3.3,4.1-6.3,6-9.3c7.2-11.1,14.4-22.3,21.6-33.4c0.8-1.3,1.8-2.5,2.8-3.7c2.3-2.6,5.3-3.7,8.7-3.9
			c1.4-0.1,2.9,0,4.6,0c-0.3,0.6-0.5,1-0.7,1.4c-11.5,17.4-23,34.8-34.6,52.1c-1.6,2.4-3.3,4.6-5.1,6.8c-1.8,2.2-4.2,2.8-6.5,1.7
			c-1.1-0.5-2.1-1.5-2.8-2.6c-3.5-5-6.9-10.1-10.2-15.2c-9.2-14.1-18.3-28.2-27.4-42.3C280.5,23.5,280.2,22.9,279.9,22.3z"/>
		<path class="st0" d="M386,83.2c-2.7,0.2-5.1,0.3-7.2-1.3c-2.2-1.7-3-4.1-3-6.8c0-4.8,0-9.7,0-14.5c0-11.8,0-23.6,0-35.4
			c0-0.9,0-1.9,0-3c2.6-0.4,4.9-0.3,7.1,0.9c2.1,1.2,2.8,3.2,3.1,5.4c0.1,0.8,0.1,1.5,0.1,2.3c0,16.7,0,33.5,0,50.2
			C386,81.7,386,82.3,386,83.2z"/>
		<path class="st0" d="M375.3,5.8c0.2-1.1,0.2-2.2,0.6-3.2c0.8-1.9,3.3-2.9,5.5-2.5c2.5,0.5,4.2,2.1,4.5,4.3c0.1,0.7,0,1.4,0.1,2.1
			c0.1,2.2-0.7,3.9-2.7,4.8c-2.2,1-4.4,0.8-6.3-0.7c-0.7-0.6-1.1-1.7-1.4-2.6c-0.2-0.6,0-1.4,0-2C375.5,5.9,375.4,5.8,375.3,5.8z"/>
	</g>
</g>
</svg>
